<svg width="922" height="961" viewBox="0 0 922 961" fill="none" xmlns="http://www.w3.org/2000/svg">
<path opacity="0.2" fill-rule="evenodd" clip-rule="evenodd" d="M944.388 195.151C862.113 219.545 799.523 278.874 773.814 356.886C769.8 369.038 752.198 369.038 748.184 356.886C722.477 278.874 659.886 219.545 577.61 195.151C564.797 191.345 564.797 174.655 577.61 170.849C659.886 146.473 722.477 87.1447 748.184 9.1134C752.198 -3.0378 769.8 -3.0378 773.814 9.1134C799.523 87.1447 862.113 146.473 944.388 170.849C957.204 174.655 957.204 191.345 944.388 195.151Z" fill="#FFB142"/>
<path opacity="0.2" fill-rule="evenodd" clip-rule="evenodd" d="M462.362 961C207.408 961 0 753.974 0 499.531C0 283.658 147.108 98.8018 357.735 49.982C399.23 40.4641 440.613 66.1335 450.244 107.512C459.859 148.89 434.062 190.211 392.603 199.825C254.414 231.859 154.121 357.897 154.121 499.531C154.121 669.16 292.406 807.178 462.362 807.178C610.28 807.178 737.662 701.982 765.21 557.042C773.128 515.317 813.431 487.878 855.295 495.838C897.099 503.741 924.571 544.004 916.635 585.729C875.271 803.177 684.24 961 462.362 961Z" fill="#D9D9D9"/>
</svg>
