<svg width="83" height="83" viewBox="0 0 83 83" fill="none" xmlns="http://www.w3.org/2000/svg">
<g clip-path="url(#clip0_709_7122)">
<path opacity="0.28" d="M11.0854 52.2794C10.0924 59.2622 11.1014 67.3661 16.4986 71.6583C20.4705 74.8133 25.8197 75.1336 30.8166 75.3419C35.5572 75.518 41.1627 75.2618 43.7412 71.1458C45.8713 67.7344 44.9104 63.186 46.0154 59.2782C47.7131 53.3204 53.7029 50.1172 58.8119 46.8821C63.9209 43.6469 69.1901 38.3618 68.0209 32.2598C66.8998 26.4462 60.5416 23.5794 54.9041 22.6665C44.6381 21.0008 33.267 22.7305 23.9299 27.5352C16.0342 31.6032 12.2865 43.8551 11.0854 52.2794Z" fill="#FFB142"/>
<path d="M32.225 70.5198C28.8778 73.8671 15.7129 71.721 11.0844 70.664C10.1875 70.4558 9.29065 71.0163 9.08245 71.9292C8.87425 72.8261 9.43479 73.7229 10.3477 73.9312C16.6899 75.3726 30.0789 77.4065 34.5953 72.8901C35.252 72.2335 35.252 71.1765 34.5953 70.5198C33.9387 69.8632 32.8817 69.8632 32.225 70.5198Z" fill="#39374D"/>
<path d="M81.3798 13.8889L69.1119 1.62096C66.9017 -0.589197 63.122 0.692053 62.6736 3.75104L61.4244 12.1913L34.2779 39.3217L25.8697 30.9135C23.6915 28.7354 20.1361 28.7354 17.958 30.9135L5.2896 43.5819C-1.75728 50.6288 0.404832 66.212 2.80718 75.8694C3.33569 77.9995 4.9853 79.6491 7.11538 80.1776C16.7408 82.5799 32.4041 84.726 39.4189 77.7112L52.0873 65.0428C54.2654 62.8647 54.2654 59.3092 52.0873 57.1311L43.6791 48.7229L70.8095 21.5924L79.2498 20.3272C82.2927 19.8788 83.606 16.1151 81.3798 13.8889ZM49.733 59.5014C50.6138 60.3823 50.6138 61.8077 49.733 62.6885L37.0646 75.3569C30.4822 81.9393 13.1052 78.2237 7.94819 76.9424C7.01929 76.7182 6.29858 75.9975 6.07436 75.0686C4.02436 66.8366 1.73413 51.894 7.67593 45.9522L20.3443 33.2839C21.2251 32.403 22.6505 32.403 23.5314 33.2839L31.9396 41.6921L27.3912 46.2405C24.7966 48.835 24.7966 53.0471 27.3912 55.6417C29.9857 58.2362 34.1978 58.2362 36.7923 55.6417L41.3408 51.0932L49.733 59.5014ZM34.39 53.2714C33.1408 54.5206 30.9787 54.5206 29.7294 53.2714C28.4322 51.9901 28.4322 49.8921 29.7294 48.6108L62.9779 15.3624L67.6384 20.0229C59.9029 27.7745 45.3927 42.2846 34.39 53.2714ZM78.7693 17.028L70.6013 18.2452L64.7716 12.4155L65.9888 4.24752C66.0369 3.86315 66.4853 3.76705 66.7576 4.00729L79.0255 16.2753C79.2818 16.4995 79.1376 16.9799 78.7693 17.028Z" fill="#39374D"/>
</g>
<defs>
<clipPath id="clip0_709_7122">
<rect width="82" height="82" fill="white" transform="translate(0.5 0.5)"/>
</clipPath>
</defs>
</svg>
