<svg width="83" height="83" viewBox="0 0 83 83" fill="none" xmlns="http://www.w3.org/2000/svg">
<g clip-path="url(#clip0_709_7103)">
<path opacity="0.28" d="M47.6443 20.1195C44.8885 22.6019 41.0302 23.4988 37.3179 23.7551C33.6056 24.0113 29.8447 23.739 26.1648 24.2996C14.7037 26.0773 5.59314 36.6957 4.7826 48.1148C3.97205 59.534 10.959 70.889 21.1881 76.2863C24.7869 78.1922 28.8883 79.4414 32.941 78.9449C36.9937 78.4484 40.9492 75.95 42.3433 72.1543C44.4508 66.4687 40.5115 59.7261 43.0728 54.2168C44.5804 50.9656 48.0496 48.9957 51.5187 47.9707C54.9879 46.9457 58.6678 46.6254 62.1045 45.5043C72.139 42.2531 79.1584 31.6347 78.1695 21.2566C77.5049 14.434 73.3549 7.75545 66.9515 5.08084C62.4125 3.19099 56.0254 3.57537 52.151 6.81052C47.6605 10.5422 52.5238 15.7152 47.6443 20.1195Z" fill="#FFB142"/>
<path d="M71.7004 11.9037H66.675V5.60959C66.675 2.80685 64.3568 0.516618 61.5199 0.516618C4.99238 0.596697 7.65098 0.308415 6.24062 0.756853C4.14941 1.39748 2.60938 3.33537 2.60938 5.6256V21.5451C2.60938 24.3479 4.92754 26.6381 7.76445 26.6381H61.5361C64.373 26.6381 66.6912 24.3479 66.6912 21.5451V15.251H71.7166C74.6346 15.251 77.0176 17.6053 77.0176 20.4881V27.3748C77.0176 29.9694 75.1371 32.1315 72.5596 32.5479L40.2998 37.6088C36.0525 38.2654 32.9725 41.8369 32.9725 46.0811V48.7557H31.4162C28.9197 48.7557 26.8771 50.7576 26.8771 53.2401V74.9252C26.8771 79.1213 30.3301 82.5326 34.5773 82.5326C38.8246 82.5326 42.2775 79.1213 42.2775 74.9252V53.208C42.2775 50.7416 40.2512 48.7237 37.7385 48.7237H36.3605V46.049C36.3605 43.4545 38.241 41.2924 40.8186 40.876L73.0783 35.8151C77.3256 35.1424 80.4057 31.5869 80.4057 27.3428V20.4561C80.3895 15.7475 76.4988 11.9037 71.7004 11.9037ZM13.5193 10.8627H5.99746V5.60959C5.99746 4.88888 6.45137 4.26427 7.08359 4.00802C7.69961 3.75177 4.29531 3.92795 61.5361 3.8799C62.5088 3.8799 63.3031 4.66466 63.3031 5.6256V10.8787H21.0412C20.101 10.8787 19.3553 11.6315 19.3553 12.5444V15.235C19.3553 16.3561 18.4312 17.285 17.2965 17.285C16.1293 17.285 15.2215 16.3881 15.2215 15.235V12.5283C15.2053 11.6154 14.4434 10.8627 13.5193 10.8627ZM61.5361 23.2748H7.76445C6.7918 23.2748 5.99746 22.4901 5.99746 21.5291V14.21H11.8172V15.235C11.8172 18.2139 14.265 20.6322 17.2803 20.6322C20.3604 20.6322 22.7271 18.1498 22.7271 15.235V14.21H63.2869V21.5291C63.3031 22.4901 62.5088 23.2748 61.5361 23.2748ZM38.8732 53.208V74.8932C38.8732 77.2475 36.9441 79.1533 34.5611 79.1533C32.1781 79.1533 30.249 77.2475 30.249 74.8932V53.208C30.249 52.5834 30.7678 52.0709 31.4 52.0709H37.7223C38.3545 52.0709 38.8732 52.5834 38.8732 53.208Z" fill="#39374D"/>
</g>
<defs>
<clipPath id="clip0_709_7103">
<rect width="83" height="82" fill="white" transform="translate(0 0.5)"/>
</clipPath>
</defs>
</svg>
