<svg width="47" height="46" viewBox="0 0 47 46" fill="none" xmlns="http://www.w3.org/2000/svg">
<rect x="0.996094" y="0.5" width="45" height="45" rx="22.5" stroke="white" stroke-opacity="0.8"/>
<path d="M24.4922 33.0098H25.4922C28.2925 33.0098 29.6926 33.0098 30.7621 32.4648C31.703 31.9854 32.4679 31.2205 32.9472 30.2797C33.4922 29.2102 33.4922 27.81 33.4922 25.0098V21.0098C33.4922 18.2095 33.4922 16.8094 32.9472 15.7398C32.4679 14.799 31.703 14.0341 30.7621 13.5547C29.6926 13.0098 28.2925 13.0098 25.4922 13.0098H21.4922C18.6919 13.0098 17.2918 13.0098 16.2222 13.5547C15.2814 14.0341 14.5165 14.799 14.0372 15.7398C13.4922 16.8094 13.4922 18.2095 13.4922 21.0098V25.0098C13.4922 27.81 13.4922 29.2102 14.0372 30.2797C14.5165 31.2205 15.2814 31.9854 16.2222 32.4648C17.2918 33.0098 18.6919 33.0098 21.4922 33.0098H24.4922ZM24.4922 33.0098V22.2098C24.4922 21.0897 24.4922 20.5296 24.7102 20.1018C24.9019 19.7255 25.2079 19.4195 25.5842 19.2278C26.012 19.0098 26.5721 19.0098 27.6922 19.0098H28.4922M21.4922 25.0098H28.4922" stroke="#F5F5F7" stroke-width="2" stroke-linecap="round" stroke-linejoin="round"/>
</svg>
