<svg width="47" height="46" viewBox="0 0 47 46" fill="none" xmlns="http://www.w3.org/2000/svg">
<rect x="0.996094" y="0.5" width="45" height="45" rx="22.5" stroke="white" stroke-opacity="0.8"/>
<path fill-rule="evenodd" clip-rule="evenodd" d="M18.4786 10.998H28.5136C32.3548 10.998 35.4961 14.0568 35.4961 17.7943V28.2018C35.4961 31.9393 32.3548 34.998 28.5136 34.998H18.4786C14.6398 34.998 11.4961 31.9393 11.4961 28.2018V17.7943C11.4961 14.0568 14.6398 10.998 18.4786 10.998ZM14.8536 31.7355C15.8233 32.6806 17.1246 33.2083 18.4786 33.2055H28.5161C29.8706 33.2087 31.1724 32.681 32.1423 31.7355C32.619 31.279 32.9985 30.7309 33.2582 30.1241C33.5179 29.5173 33.6524 28.8643 33.6536 28.2043V17.7955C33.6536 16.4693 33.1161 15.2155 32.1423 14.2668C31.1724 13.3203 29.8701 12.7917 28.5148 12.7943H18.4798C17.1148 12.7943 15.8298 13.3193 14.8536 14.2668C14.3771 14.723 13.9975 15.2707 13.7377 15.877C13.4778 16.4833 13.3429 17.1359 13.3411 17.7955V28.2043C13.3423 29.5318 13.8798 30.788 14.8536 31.7355ZM28.6823 16.3755C28.6823 15.533 29.3836 14.8505 30.2473 14.8505C31.1123 14.8505 31.8123 15.533 31.8123 16.3755C31.8123 17.2168 31.1123 17.8955 30.2473 17.8955C29.3848 17.8955 28.6823 17.2168 28.6823 16.3755ZM16.9211 22.9068C16.9211 19.3543 19.8798 16.4743 23.5286 16.4743C27.1786 16.4743 30.1373 19.3543 30.1373 22.9068C30.1373 26.4593 27.1773 29.3393 23.5286 29.3393C19.8798 29.3393 16.9211 26.4593 16.9211 22.9068ZM19.1711 22.9105C19.1711 25.2368 21.1086 27.1243 23.4998 27.1243C25.8873 27.1243 27.8248 25.2368 27.8248 22.9105C27.8248 20.5855 25.8873 18.7005 23.4998 18.7005C21.1086 18.7005 19.1711 20.5855 19.1711 22.9105Z" fill="#F5F5F7"/>
</svg>
