<svg width="47" height="46" viewBox="0 0 47 46" fill="none" xmlns="http://www.w3.org/2000/svg">
<rect x="0.996094" y="0.5" width="45" height="45" rx="22.5" stroke="white" stroke-opacity="0.8"/>
<path d="M18.6914 31.0023H14.6914V19.0023H18.6914V31.0023ZM16.6914 17.4023C16.161 17.4023 15.6523 17.1916 15.2772 16.8166C14.9021 16.4415 14.6914 15.9328 14.6914 15.4023C14.6914 14.8719 14.9021 14.3632 15.2772 13.9881C15.6523 13.6131 16.161 13.4023 16.6914 13.4023C17.2218 13.4023 17.7305 13.6131 18.1056 13.9881C18.4807 14.3632 18.6914 14.8719 18.6914 15.4023C18.6914 15.9328 18.4807 16.4415 18.1056 16.8166C17.7305 17.1916 17.2218 17.4023 16.6914 17.4023ZM33.0914 31.0023H29.2477V25.1623C29.2477 23.7698 29.2214 21.9786 27.2477 21.9786C25.2452 21.9786 24.9377 23.4948 24.9377 25.0623V31.0023H21.0927V18.9936H24.7839V20.6348H24.8364C25.3489 19.6911 26.6052 18.6961 28.4764 18.6961C32.3727 18.6961 33.0927 21.1836 33.0927 24.4161V31.0036L33.0914 31.0023Z" fill="#F5F5F7"/>
</svg>
