<svg width="114" height="114" viewBox="0 0 114 114" fill="none" xmlns="http://www.w3.org/2000/svg">
<g clip-path="url(#clip0_709_7112)">
<path opacity="0.28" d="M7.91406 64.1721C7.91406 74.0375 11.026 84.3444 18.3754 90.9434C25.5703 97.41 35.6785 99.4625 45.3232 99.904C52.6285 100.257 60.0883 99.8157 66.9301 97.2114C75.8685 93.8126 83.1297 86.9045 88.559 79.0254C93.9883 71.1463 97.7844 62.2741 101.514 53.468C104.626 46.1407 107.782 37.8643 104.913 30.4266C102.684 24.6221 97.1885 20.7157 91.5385 18.1114C85.116 15.1539 78.0094 13.4325 70.9689 14.0725C63.9285 14.7125 56.9764 17.8465 52.4961 23.32C48.0379 28.7713 46.184 36.1649 41.0637 41.0204C37.0248 44.8385 31.11 46.6041 25.6145 45.633C25.5482 45.633 25.5041 45.611 25.4379 45.611C16.9187 43.9557 8.70859 49.8264 8.09063 58.5C7.98027 60.4422 7.91406 62.3623 7.91406 64.1721Z" fill="#FFB142"/>
<path d="M113.478 23.6734C113.389 21.7532 112.198 20.0759 110.432 19.3917C108.711 18.7296 106.835 19.0827 105.51 20.3407L98.7789 25.6155C95.7994 27.7343 91.7606 27.4032 89.1783 24.821C86.5961 22.2388 86.2651 18.1999 88.3176 15.3087L93.6586 8.48898C96.4615 5.50949 94.3869 0.698165 90.326 0.521602C83.5725 0.234688 76.9293 2.81691 72.1401 7.60617C66.9756 12.7706 64.4375 19.8773 65.1658 27.1163C65.519 30.7579 64.2389 34.3333 61.6346 36.9155L36.8938 61.6343C34.2895 64.2386 30.7361 65.5187 27.0945 65.1655C19.8334 64.4372 12.7047 66.9974 7.56231 72.1618C2.72892 76.9952 0.16876 83.6825 0.543955 90.5243C0.632236 92.3782 1.77989 93.9452 3.52345 94.6073C5.24493 95.2694 7.16505 94.8942 8.48927 93.6583L15.1986 88.4056C18.1781 86.2868 22.217 86.6179 24.7992 89.2001L24.8213 89.2222C27.3815 91.8044 27.7125 95.8212 25.66 98.7124L20.3631 105.488C17.5602 108.49 19.6568 113.279 23.6957 113.455C30.4492 113.742 37.0703 111.182 41.8375 106.415C46.9799 101.273 49.518 94.1659 48.8117 86.9048C48.4586 83.2853 49.7387 79.7099 52.343 77.1056L77.1059 52.3427C79.7102 49.7384 83.2856 48.4583 86.9272 48.8114C94.1662 49.5177 101.273 46.9796 106.415 41.8372C111.182 37.048 113.765 30.4269 113.478 23.6734ZM103.149 38.5708C98.9776 42.7421 93.2393 44.7946 87.3906 44.2208C82.3586 43.7132 77.4369 45.5009 73.8615 49.0763L49.0766 73.8392C45.5012 77.4146 43.7356 82.3362 44.2211 87.3462C44.7949 93.2169 42.7424 98.9773 38.5711 103.149C32.5238 109.196 24.7109 109.306 23.7178 108.622C23.8723 108.467 25.5055 106.371 29.3457 101.449C32.7666 96.6378 32.2149 90.105 28.0436 85.9337L28.0215 85.9116C23.8502 81.7624 17.3174 81.2107 12.4399 84.6978C12.3295 84.786 5.37735 90.1933 5.24493 90.3257C4.80353 90.2374 4.4504 81.8066 10.8287 75.4282C15 71.2569 20.7824 69.1823 26.6531 69.7782C31.6631 70.2638 36.5848 68.4982 40.1602 64.9228L64.901 40.182C68.4764 36.6066 70.242 31.6628 69.7565 26.6529C69.1826 20.7821 71.2352 15.0218 75.4065 10.8505C81.7186 4.5384 89.4652 5.06809 90.2819 5.33293C90.1053 5.50949 90.5908 4.93566 84.6319 12.5279C81.211 17.3392 81.7406 23.872 85.934 28.0654C90.1053 32.2366 96.6381 32.7884 101.538 29.3013C101.56 29.2792 108.733 23.6954 108.755 23.6734C109.306 23.8941 109.284 32.4353 103.149 38.5708Z" fill="#39374D"/>
<path d="M63.9962 46.7373L46.7373 63.9962C45.8324 64.9011 45.8324 66.3578 46.7373 67.2626C47.6421 68.1675 49.0988 68.1675 50.0037 67.2626L67.2626 50.0037C68.1675 49.0988 68.1675 47.6421 67.2626 46.7373C66.3578 45.8324 64.8791 45.8324 63.9962 46.7373Z" fill="#39374D"/>
</g>
<defs>
<clipPath id="clip0_709_7112">
<rect width="113" height="113" fill="white" transform="translate(0.5 0.5)"/>
</clipPath>
</defs>
</svg>
