<svg width="46" height="46" viewBox="0 0 46 46" fill="none" xmlns="http://www.w3.org/2000/svg">
<rect x="0.996094" y="0.5" width="44" height="45" rx="22" stroke="white" stroke-opacity="0.8"/>
<g clip-path="url(#clip0_1238_9057)">
<path d="M34.0039 17.204C34.0039 20.0769 32.3617 21.1357 32.3617 21.1357V21.9751C32.3617 28.004 27.6739 34.9004 19.1307 34.9004C16.4747 34.9004 14.0401 34.163 12.0039 32.8618C14.4473 33.1611 16.9161 32.4821 18.8651 30.9968C16.8289 30.9534 15.1025 29.6522 14.527 27.8305C15.2468 27.9313 15.8963 27.918 16.6075 27.7438C14.4372 27.3007 12.8892 25.3945 12.8892 23.2329C13.5089 23.5799 14.2615 23.7534 15.014 23.7968C13.0083 22.5092 12.3129 19.75 13.5532 17.7245C15.855 20.457 19.3077 22.2787 23.1588 22.4956C23.0703 22.1486 23.026 21.8016 23.026 21.4546C23.026 18.9389 25.1065 16.9004 27.6739 16.9004C29.0019 16.9004 30.1971 17.4209 31.0824 18.3317C32.1005 18.1148 33.1186 17.7245 34.0039 17.204Z" stroke="#F5F5F7" stroke-width="1.5" stroke-linecap="round" stroke-linejoin="round"/>
</g>
<defs>
<clipPath id="clip0_1238_9057">
<rect width="27.5959" height="29" fill="white" transform="translate(9.19922 8.5)"/>
</clipPath>
</defs>
</svg>
