<svg width="39" height="27" viewBox="0 0 39 27" fill="none" xmlns="http://www.w3.org/2000/svg">
<rect x="0.5" y="0.5" width="38" height="26" rx="3.5" fill="white" stroke="#F3F3F3"/>
<path fill-rule="evenodd" clip-rule="evenodd" d="M12.8225 13.7177C12.8225 15.3661 14.112 16.6442 15.7713 16.6442C16.2403 16.6442 16.6422 16.5517 17.1376 16.3175V15.0298C16.702 15.4675 16.3161 15.6441 15.822 15.6441C14.7245 15.6441 13.9455 14.8452 13.9455 13.7095C13.9455 12.6329 14.7491 11.7835 15.7713 11.7835C16.291 11.7835 16.6845 11.9696 17.1376 12.4145V11.1275C16.6593 10.8839 16.266 10.783 15.797 10.783C14.1461 10.783 12.8225 12.0871 12.8225 13.7177ZM10.026 12.3557C10.026 12.6588 10.2179 12.8189 10.8719 13.0618C12.1115 13.517 12.4788 13.9202 12.4788 14.8114C12.4788 15.8969 11.6843 16.6528 10.552 16.6528C9.72279 16.6528 9.11974 16.325 8.61771 15.5851L9.32177 14.9045C9.57257 15.3916 9.99129 15.6527 10.511 15.6527C10.9973 15.6527 11.3571 15.316 11.3571 14.8616C11.3571 14.6261 11.2481 14.424 11.0303 14.2812C10.9209 14.2136 10.7038 14.1131 10.2771 13.9618C9.25356 13.5922 8.90261 13.1966 8.90261 12.4239C8.90261 11.5061 9.65653 10.8171 10.6451 10.8171C11.2576 10.8171 11.8181 11.0273 12.2867 11.4387L11.7165 12.1882C11.4326 11.8688 11.1641 11.7341 10.8378 11.7341C10.3681 11.7341 10.026 12.0025 10.026 12.3557ZM7.11756 16.518H8.20732V10.9098H7.11756V16.518ZM4.89015 15.1227C4.54783 15.4331 4.10299 15.5686 3.39893 15.5686H3.10647V11.8599H3.39893C4.10299 11.8599 4.53035 11.9864 4.89015 12.3136C5.267 12.6503 5.49363 13.1724 5.49363 13.7096C5.49363 14.248 5.267 14.786 4.89015 15.1227ZM3.61714 10.9098H2.01758V16.5178H3.60873C4.4548 16.5178 5.06562 16.3176 5.60198 15.8704C6.23934 15.3411 6.61619 14.5431 6.61619 13.7178C6.61619 12.0627 5.38441 10.9098 3.61714 10.9098ZM24.2881 10.9098L25.7778 14.6767L27.2869 10.9098H28.4682L26.0547 16.6618H25.4683L23.0976 10.9098H24.2881ZM28.961 16.5179H32.0513V15.5684H30.0499V14.0546H31.9777V13.1047H30.0499V11.86H32.0513V10.9097H28.961V16.5179ZM33.8615 13.4916H34.1798C34.8759 13.4916 35.2448 13.1881 35.2448 12.6243C35.2448 12.0785 34.8759 11.7932 34.1971 11.7932H33.8615V13.4916ZM34.389 10.9096C35.6456 10.9096 36.366 11.5154 36.366 12.5654C36.366 13.424 35.9141 13.9878 35.0933 14.1553L36.8521 16.5178H35.512L34.0037 14.2649H33.8615V16.5178H32.773V10.9096H34.389Z" fill="#1D1D1B"/>
<path fill-rule="evenodd" clip-rule="evenodd" d="M22.9692 15.3407C23.8536 13.9523 23.4497 12.108 22.0668 11.2202V11.2202C20.684 10.3324 18.8463 10.7377 17.9619 12.1261V12.1261C17.0776 13.514 17.4817 15.359 18.8646 16.2468V16.2468C20.2474 17.1345 22.0849 16.7286 22.9692 15.3407Z" fill="url(#paint0_linear_1653_25034)"/>
<defs>
<linearGradient id="paint0_linear_1653_25034" x1="24.5703" y1="12.8274" x2="19.5519" y2="9.63027" gradientUnits="userSpaceOnUse">
<stop stop-color="#F6A000"/>
<stop offset="0.623918" stop-color="#E47E02"/>
<stop offset="1" stop-color="#D36002"/>
</linearGradient>
</defs>
</svg>
