<svg width="38" height="38" viewBox="0 0 38 38" fill="none" xmlns="http://www.w3.org/2000/svg">
<path d="M19.0013 1.97852C9.60095 1.97852 1.98047 9.599 1.98047 18.9993C1.98047 28.3997 9.60095 36.0202 19.0013 36.0202C28.4016 36.0202 36.0221 28.3997 36.0221 18.9993C36.0221 9.599 28.4016 1.97852 19.0013 1.97852Z" stroke="#A0A3BD" stroke-linecap="round" stroke-linejoin="round"/>
<path fill-rule="evenodd" clip-rule="evenodd" d="M25.8637 13.7197C26.1566 14.0126 26.1566 14.4874 25.8637 14.7803L17.947 22.697C17.8063 22.8376 17.6156 22.9167 17.4167 22.9167C17.2178 22.9167 17.027 22.8376 16.8863 22.697L13.7197 19.5303C13.4268 19.2374 13.4268 18.7626 13.7197 18.4697C14.0126 18.1768 14.4874 18.1768 14.7803 18.4697L17.4167 21.106L24.803 13.7197C25.0959 13.4268 25.5708 13.4268 25.8637 13.7197Z" fill="white"/>
</svg>
