<svg width="24" height="25" viewBox="0 0 24 25" fill="none" xmlns="http://www.w3.org/2000/svg">
<rect opacity="0.12" x="2" y="3.21289" width="20" height="18" rx="5" fill="#939EAC"/>
<path d="M18 8.21289L17 8.87956L16.4376 9.25449C14.8338 10.3237 14.0319 10.8583 13.1652 11.066C12.3992 11.2495 11.6008 11.2495 10.8348 11.066C9.96808 10.8583 9.16618 10.3237 7.5624 9.25449L7 8.87956L6 8.21289M10 21.2129H14C16.8003 21.2129 18.2004 21.2129 19.27 20.6679C20.2108 20.1886 20.9757 19.4237 21.455 18.4828C22 17.4133 22 16.0132 22 13.2129V11.2129C22 8.41263 22 7.0125 21.455 5.94294C20.9757 5.00213 20.2108 4.23722 19.27 3.75786C18.2004 3.21289 16.8003 3.21289 14 3.21289H10C7.19974 3.21289 5.79961 3.21289 4.73005 3.75786C3.78924 4.23722 3.02433 5.00213 2.54497 5.94294C2 7.0125 2 8.41263 2 11.2129V13.2129C2 16.0132 2 17.4133 2.54497 18.4828C3.02433 19.4237 3.78924 20.1886 4.73005 20.6679C5.79961 21.2129 7.19974 21.2129 10 21.2129Z" stroke="#939EAC" stroke-width="1.5" stroke-linecap="round"/>
</svg>
