<svg width="24" height="25" viewBox="0 0 24 25" fill="none" xmlns="http://www.w3.org/2000/svg">
<rect opacity="0.12" x="3" y="8.21289" width="18" height="14" rx="4" fill="#939EAC"/>
<path d="M7 8.21289V7.01289C7 5.33273 7 4.49265 7.32698 3.85092C7.6146 3.28643 8.07354 2.82749 8.63803 2.53987C9.27976 2.21289 10.1198 2.21289 11.8 2.21289H12.2C13.8802 2.21289 14.7202 2.21289 15.362 2.53987C15.9265 2.82749 16.3854 3.28643 16.673 3.85092C17 4.49265 17 5.33273 17 7.01289V8.21289M12 14.2129V16.2129M9.4 22.2129H14.6C16.8402 22.2129 17.9603 22.2129 18.816 21.7769C19.5686 21.3934 20.1805 20.7815 20.564 20.0289C21 19.1732 21 18.0531 21 15.8129V14.6129C21 12.3727 21 11.2526 20.564 10.3969C20.1805 9.64428 19.5686 9.03236 18.816 8.64886C17.9603 8.21289 16.8402 8.21289 14.6 8.21289H9.4C7.15979 8.21289 6.03968 8.21289 5.18404 8.64886C4.43139 9.03236 3.81947 9.64428 3.43597 10.3969C3 11.2526 3 12.3727 3 14.6129V15.8129C3 18.0531 3 19.1732 3.43597 20.0289C3.81947 20.7815 4.43139 21.3934 5.18404 21.7769C6.03968 22.2129 7.15979 22.2129 9.4 22.2129Z" stroke="#939EAC" stroke-width="1.5" stroke-linecap="round"/>
</svg>
