<svg width="198" height="198" viewBox="0 0 198 198" fill="none" xmlns="http://www.w3.org/2000/svg">
<mask id="mask0_732_5808" style="mask-type:luminance" maskUnits="userSpaceOnUse" x="0" y="0" width="198" height="198">
<path d="M198 0H0V198H198V0Z" fill="white"/>
</mask>
<g mask="url(#mask0_732_5808)">
<mask id="mask1_732_5808" style="mask-type:luminance" maskUnits="userSpaceOnUse" x="0" y="0" width="198" height="198">
<path d="M0 0H198V198H0V0Z" fill="white"/>
</mask>
<g mask="url(#mask1_732_5808)">
<g opacity="0.53">
<path d="M83.9082 3.29688C86.4916 3.29688 88.586 5.39122 88.586 7.97463C88.586 10.558 86.4916 12.6524 83.9082 12.6524C81.3248 12.6524 79.2305 10.558 79.2305 7.97463C79.2305 5.39122 81.3248 3.29688 83.9082 3.29688Z" fill="#5BAE60"/>
</g>
<g opacity="0.87">
<path d="M26.7357 37.9062C28.4989 37.9062 29.9285 39.3358 29.9285 41.099C29.9285 42.8622 28.4989 44.2917 26.7357 44.2917C24.9725 44.2917 23.543 42.8622 23.543 41.099C23.543 39.3358 24.9725 37.9062 26.7357 37.9062Z" fill="#5BAE60"/>
</g>
<g opacity="0.87">
<path d="M26.7353 4.23438C27.9656 4.23438 28.9628 5.23155 28.9628 6.46187C28.9628 7.6922 27.9656 8.68937 26.7353 8.68937C25.505 8.68937 24.5078 7.6922 24.5078 6.46187C24.5078 5.23155 25.505 4.23438 26.7353 4.23438Z" fill="#5BAE60"/>
</g>
<g opacity="0.63">
<path d="M53.9575 13.2549C54.5725 13.2549 55.0712 13.7536 55.0712 14.3686C55.0712 14.9837 54.5725 15.4824 53.9575 15.4824C53.3425 15.4824 52.8438 14.9837 52.8438 14.3686C52.8438 13.7536 53.3425 13.2549 53.9575 13.2549Z" fill="#5BAE60"/>
</g>
<g opacity="0.33">
<path d="M194.79 69.9316C195.405 69.9316 195.903 70.4304 195.903 71.0454C195.903 71.6604 195.405 72.1591 194.79 72.1591C194.174 72.1591 193.676 71.6604 193.676 71.0454C193.676 70.4304 194.174 69.9316 194.79 69.9316Z" fill="#5BAE60"/>
</g>
<g opacity="0.71">
<path d="M146.77 114.482C147.385 114.482 147.884 114.981 147.884 115.596C147.884 116.211 147.385 116.71 146.77 116.71C146.155 116.71 145.656 116.211 145.656 115.596C145.656 114.981 146.155 114.482 146.77 114.482Z" fill="#5BAE60"/>
</g>
<g opacity="0.92">
<path d="M146.77 158.948C147.385 158.948 147.884 159.447 147.884 160.062C147.884 160.677 147.385 161.176 146.77 161.176C146.155 161.176 145.656 160.677 145.656 160.062C145.656 159.447 146.155 158.948 146.77 158.948Z" fill="#5BAE60"/>
</g>
<g opacity="0.97">
<path d="M185.633 190.218C186.248 190.218 186.747 190.716 186.747 191.332C186.747 191.947 186.248 192.445 185.633 192.445C185.018 192.445 184.52 191.947 184.52 191.332C184.52 190.716 185.018 190.218 185.633 190.218Z" fill="#5BAE60"/>
</g>
<g opacity="0.78">
<path d="M173.375 128.798C173.991 128.798 174.489 129.297 174.489 129.912C174.489 130.527 173.991 131.025 173.375 131.025C172.76 131.025 172.262 130.527 172.262 129.912C172.262 129.297 172.76 128.798 173.375 128.798Z" fill="#5BAE60"/>
</g>
<g opacity="0.72">
<path d="M47.52 171.408C48.135 171.408 48.6337 171.907 48.6337 172.522C48.6337 173.137 48.135 173.636 47.52 173.636C46.905 173.636 46.4062 173.137 46.4062 172.522C46.4062 171.907 46.905 171.408 47.52 171.408Z" fill="#5BAE60"/>
</g>
<g opacity="0.68">
<path d="M42.5122 72.6816C43.1272 72.6816 43.6259 73.1804 43.6259 73.7954C43.6259 74.4104 43.1272 74.9091 42.5122 74.9091C41.8972 74.9091 41.3984 74.4104 41.3984 73.7954C41.3984 73.1804 41.8972 72.6816 42.5122 72.6816Z" fill="#5BAE60"/>
</g>
<g opacity="0.63">
<path d="M69.6684 38.8711C70.2835 38.8711 70.7822 39.3698 70.7822 39.9848C70.7822 40.5999 70.2835 41.0986 69.6684 41.0986C69.0534 41.0986 68.5547 40.5999 68.5547 39.9848C68.5547 39.3698 69.0534 38.8711 69.6684 38.8711Z" fill="#5BAE60"/>
</g>
<g opacity="0.97">
<path d="M42.563 194.921C43.178 194.921 43.6767 195.42 43.6767 196.035C43.6767 196.65 43.178 197.148 42.563 197.148C41.9479 197.148 41.4492 196.65 41.4492 196.035C41.4492 195.42 41.9479 194.921 42.563 194.921Z" fill="#5BAE60"/>
</g>
<g opacity="0.73">
<path d="M133.336 155.509C133.951 155.509 134.45 156.008 134.45 156.623C134.45 157.238 133.951 157.736 133.336 157.736C132.721 157.736 132.223 157.238 132.223 156.623C132.223 156.008 132.721 155.509 133.336 155.509Z" fill="#5BAE60"/>
</g>
<g opacity="0.86">
<path d="M71.8481 154.394C72.4632 154.394 72.9619 154.892 72.9619 155.507C72.9619 156.122 72.4632 156.621 71.8481 156.621C71.2331 156.621 70.7344 156.122 70.7344 155.507C70.7344 154.892 71.2331 154.394 71.8481 154.394Z" fill="#5BAE60"/>
</g>
<g opacity="0.3">
<path d="M144.29 69.9316C144.905 69.9316 145.403 70.4304 145.403 71.0454C145.403 71.6604 144.905 72.1591 144.29 72.1591C143.674 72.1591 143.176 71.6604 143.176 71.0454C143.176 70.4304 143.674 69.9316 144.29 69.9316Z" fill="#5BAE60"/>
</g>
<g opacity="0.41">
<path d="M177.457 50.1338C178.073 50.1338 178.571 50.6325 178.571 51.2475C178.571 51.8626 178.073 52.3613 177.457 52.3613C176.842 52.3613 176.344 51.8626 176.344 51.2475C176.344 50.6325 176.842 50.1338 177.457 50.1338Z" fill="#5BAE60"/>
</g>
<g opacity="0.66">
<path d="M49.3798 42.1016C50.6102 42.1016 51.6073 43.0987 51.6073 44.3291C51.6073 45.5594 50.6102 46.5566 49.3798 46.5566C48.1495 46.5566 47.1523 45.5594 47.1523 44.3291C47.1523 43.0987 48.1495 42.1016 49.3798 42.1016Z" fill="#5BAE60"/>
</g>
<g opacity="0.71">
<path d="M168.923 85.0713C170.153 85.0713 171.15 86.0685 171.15 87.2988C171.15 88.5291 170.153 89.5263 168.923 89.5263C167.692 89.5263 166.695 88.5291 166.695 87.2988C166.695 86.0685 167.692 85.0713 168.923 85.0713Z" fill="#5BAE60"/>
</g>
<g opacity="0.86">
<path d="M122.517 43.3398C123.747 43.3398 124.744 44.337 124.744 45.5673C124.744 46.7977 123.747 47.7948 122.517 47.7948C121.286 47.7948 120.289 46.7977 120.289 45.5673C120.289 44.337 121.286 43.3398 122.517 43.3398Z" fill="#5BAE60"/>
</g>
<g opacity="0.71">
<path d="M103.954 22.2588C105.184 22.2588 106.182 23.256 106.182 24.4863C106.182 25.7166 105.184 26.7138 103.954 26.7138C102.724 26.7138 101.727 25.7166 101.727 24.4863C101.727 23.256 102.724 22.2588 103.954 22.2588Z" fill="#5BAE60"/>
</g>
<g opacity="0.38">
<path d="M194.29 107.443C195.52 107.443 196.517 108.441 196.517 109.671C196.517 110.901 195.52 111.898 194.29 111.898C193.06 111.898 192.062 110.901 192.062 109.671C192.062 108.441 193.06 107.443 194.29 107.443Z" fill="#5BAE60"/>
</g>
<path d="M159.145 141.53C160.376 141.53 161.373 142.527 161.373 143.758C161.373 144.988 160.376 145.985 159.145 145.985C157.915 145.985 156.918 144.988 156.918 143.758C156.918 142.527 157.915 141.53 159.145 141.53Z" fill="#5BAE60"/>
<g opacity="0.41">
<path d="M171.153 153.28C172.384 153.28 173.381 154.277 173.381 155.508C173.381 156.738 172.384 157.735 171.153 157.735C169.923 157.735 168.926 156.738 168.926 155.508C168.926 154.277 169.923 153.28 171.153 153.28Z" fill="#5BAE60"/>
</g>
<g opacity="0.47">
<path d="M61.872 143.576C63.1024 143.576 64.0995 144.573 64.0995 145.804C64.0995 147.034 63.1024 148.031 61.872 148.031C60.6417 148.031 59.6445 147.034 59.6445 145.804C59.6445 144.573 60.6417 143.576 61.872 143.576Z" fill="#5BAE60"/>
</g>
<g opacity="0.35">
<path d="M87.747 150.34C88.9774 150.34 89.9745 151.337 89.9745 152.567C89.9745 153.798 88.9774 154.795 87.747 154.795C86.5167 154.795 85.5195 153.798 85.5195 152.567C85.5195 151.337 86.5167 150.34 87.747 150.34Z" fill="#5BAE60"/>
</g>
<g opacity="0.3">
<path d="M26.7353 109.668C27.9656 109.668 28.9628 110.665 28.9628 111.895C28.9628 113.126 27.9656 114.123 26.7353 114.123C25.505 114.123 24.5078 113.126 24.5078 111.895C24.5078 110.665 25.505 109.668 26.7353 109.668Z" fill="#5BAE60"/>
</g>
<g opacity="0.64">
<path d="M87.8802 36.667C89.6434 36.667 91.073 38.0966 91.073 39.8597C91.073 41.6229 89.6434 43.0525 87.8802 43.0525C86.1171 43.0525 84.6875 41.6229 84.6875 39.8597C84.6875 38.0966 86.1171 36.667 87.8802 36.667Z" fill="#5BAE60"/>
</g>
<g opacity="0.36">
<path d="M152.954 49.5596C154.718 49.5596 156.147 50.9891 156.147 52.7523C156.147 54.5155 154.718 55.9451 152.954 55.9451C151.191 55.9451 149.762 54.5155 149.762 52.7523C149.762 50.9891 151.191 49.5596 152.954 49.5596Z" fill="#5BAE60"/>
</g>
<g opacity="0.69">
<path d="M148.626 18.0918C150.39 18.0918 151.819 19.5214 151.819 21.2845C151.819 23.0477 150.39 24.4773 148.626 24.4773C146.863 24.4773 145.434 23.0477 145.434 21.2845C145.434 19.5214 146.863 18.0918 148.626 18.0918Z" fill="#5BAE60"/>
</g>
<g opacity="0.52">
<path d="M161.423 106.245C163.186 106.245 164.616 107.675 164.616 109.438C164.616 111.201 163.186 112.631 161.423 112.631C159.66 112.631 158.23 111.201 158.23 109.438C158.23 107.675 159.66 106.245 161.423 106.245Z" fill="#5BAE60"/>
</g>
<g opacity="0.95">
<path d="M133.341 135.836C135.104 135.836 136.534 137.265 136.534 139.029C136.534 140.792 135.104 142.221 133.341 142.221C131.578 142.221 130.148 140.792 130.148 139.029C130.148 137.265 131.578 135.836 133.341 135.836Z" fill="#5BAE60"/>
</g>
<g opacity="0.66">
<path d="M67.5482 173.516C69.3114 173.516 70.741 174.945 70.741 176.708C70.741 178.472 69.3114 179.901 67.5482 179.901C65.785 179.901 64.3555 178.472 64.3555 176.708C64.3555 174.945 65.785 173.516 67.5482 173.516Z" fill="#5BAE60"/>
</g>
<g opacity="0.95">
<path d="M28.1107 155.509C29.8739 155.509 31.3035 156.938 31.3035 158.702C31.3035 160.465 29.8739 161.894 28.1107 161.894C26.3475 161.894 24.918 160.465 24.918 158.702C24.918 156.938 26.3475 155.509 28.1107 155.509Z" fill="#5BAE60"/>
</g>
<g opacity="0.69">
<path d="M48.2943 113.519C50.0575 113.519 51.4871 114.948 51.4871 116.711C51.4871 118.474 50.0575 119.904 48.2943 119.904C46.5311 119.904 45.1016 118.474 45.1016 116.711C45.1016 114.948 46.5311 113.519 48.2943 113.519Z" fill="#5BAE60"/>
</g>
<g opacity="0.3">
<path d="M61.7513 55.6982C63.5145 55.6982 64.9441 57.1278 64.9441 58.891C64.9441 60.6542 63.5145 62.0837 61.7513 62.0837C59.9882 62.0837 58.5586 60.6542 58.5586 58.891C58.5586 57.1278 59.9882 55.6982 61.7513 55.6982Z" fill="#5BAE60"/>
</g>
<g opacity="0.34">
<path d="M5.69666 189.152C7.45985 189.152 8.88941 190.582 8.88941 192.345C8.88941 194.108 7.45985 195.538 5.69666 195.538C3.93347 195.538 2.50391 194.108 2.50391 192.345C2.50391 190.582 3.93347 189.152 5.69666 189.152Z" fill="#5BAE60"/>
</g>
<g opacity="0.64">
<path d="M190.08 3.0498C192.663 3.0498 194.758 5.14415 194.758 7.72755C194.758 10.311 192.663 12.4053 190.08 12.4053C187.497 12.4053 185.402 10.311 185.402 7.72755C185.402 5.14415 187.497 3.0498 190.08 3.0498Z" fill="#5BAE60"/>
</g>
<g opacity="0.37">
<path d="M126.514 182.347C129.097 182.347 131.191 184.441 131.191 187.024C131.191 189.608 129.097 191.702 126.514 191.702C123.93 191.702 121.836 189.608 121.836 187.024C121.836 184.441 123.93 182.347 126.514 182.347Z" fill="#5BAE60"/>
</g>
<g opacity="0.89">
<path d="M7.67384 74.8252C10.2572 74.8252 12.3516 76.9195 12.3516 79.5029C12.3516 82.0864 10.2572 84.1807 7.67384 84.1807C5.09044 84.1807 2.99609 82.0864 2.99609 79.5029C2.99609 76.9195 5.09044 74.8252 7.67384 74.8252Z" fill="#5BAE60"/>
</g>
</g>
<path d="M98.9977 51.9756C124.969 51.9756 146.023 73.0294 146.023 99.0006C146.023 124.972 124.969 146.026 98.9977 146.026C73.0265 146.026 51.9727 124.972 51.9727 99.0006C51.9727 73.0294 73.0265 51.9756 98.9977 51.9756Z" fill="#5BAE60"/>
<path d="M89.9694 122.822C88.7025 122.822 87.4358 122.338 86.4693 121.372L68.278 103.18C66.3448 101.247 66.3448 98.1133 68.278 96.1801C70.2113 94.2469 73.3451 94.2469 75.2783 96.1801L89.9694 110.871L120.253 80.5876C122.186 78.6544 125.32 78.6544 127.253 80.5876C129.187 82.5208 129.187 85.6547 127.253 87.5879L93.4696 121.372C92.5031 122.338 91.2364 122.822 89.9694 122.822Z" fill="white"/>
<path d="M89.9653 122.822C91.2323 122.822 92.499 122.339 93.4655 121.373L127.249 87.5888C128.938 85.8996 129.151 83.2936 127.889 81.373L87.25 122.012C88.0717 122.552 89.0181 122.822 89.9653 122.822Z" fill="#FFF8DA"/>
</g>
</svg>
