<svg width="16" height="22" viewBox="0 0 16 22" fill="none" xmlns="http://www.w3.org/2000/svg">
<path d="M11 13.7129L11.6 14.2129V14.2129C13.2605 15.5967 14.0908 16.2886 14.3678 16.8141C15.1922 18.3783 14.4919 20.3126 12.8572 20.9865C12.3079 21.2129 11.2272 21.2129 9.06565 21.2129H8C4.96159 21.2129 3.44239 21.2129 2.72234 20.7731C1.52426 20.0413 0.993919 18.5764 1.44581 17.2472C1.7174 16.4484 2.88448 15.4758 5.21865 13.5307L10.7813 8.8951C13.1155 6.94996 14.2826 5.97739 14.5542 5.17854C15.0061 3.84936 14.4757 2.38453 13.2777 1.65272C12.5576 1.21289 11.0384 1.21289 8 1.21289H6.93435C4.77283 1.21289 3.69206 1.21289 3.14281 1.43931C1.5081 2.11317 0.807787 4.04748 1.63221 5.61167C1.90921 6.13723 2.73947 6.82912 4.4 8.21289V8.21289L5 8.71289" stroke="#39374D" stroke-width="1.5" stroke-linecap="round" stroke-linejoin="round"/>
</svg>
