<svg width="38" height="39" viewBox="0 0 38 39" fill="none" xmlns="http://www.w3.org/2000/svg">
<path d="M19.0013 2.19238C9.60095 2.19238 1.98047 9.81287 1.98047 19.2132C1.98047 28.6136 9.60095 36.234 19.0013 36.234C28.4016 36.234 36.0221 28.6136 36.0221 19.2132C36.0221 9.81287 28.4016 2.19238 19.0013 2.19238Z" fill="#FFB142"/>
<path fill-rule="evenodd" clip-rule="evenodd" d="M25.8637 13.9326C26.1566 14.2255 26.1566 14.7003 25.8637 14.9932L17.947 22.9099C17.8063 23.0505 17.6156 23.1296 17.4167 23.1296C17.2178 23.1296 17.027 23.0505 16.8863 22.9099L13.7197 19.7432C13.4268 19.4503 13.4268 18.9755 13.7197 18.6826C14.0126 18.3897 14.4874 18.3897 14.7803 18.6826L17.4167 21.3189L24.803 13.9326C25.0959 13.6397 25.5708 13.6397 25.8637 13.9326Z" fill="white"/>
</svg>
