<svg width="25" height="24" viewBox="0 0 25 24" fill="none" xmlns="http://www.w3.org/2000/svg">
<path opacity="0.12" d="M12.5 22C18.0228 22 22.5 17.5228 22.5 12C22.5 6.47715 18.0228 2 12.5 2C6.97715 2 2.5 6.47715 2.5 12C2.5 13.499 2.83015 14.921 3.4214 16.1973C3.88829 17.2052 4.33022 18.0644 4.00454 19.1977C3.84789 19.7429 3.45529 20.2798 3.40866 20.8475C3.35534 21.4967 3.92708 22.0228 4.56965 21.9157C5.8779 21.6977 6.5076 20.6574 8.02552 21.0144C8.19003 21.0531 8.61879 21.2065 9.47627 21.5132C10.3835 21.8377 11.3606 22 12.5 22Z" fill="white"/>
<path d="M8.5 12C8.5 12.2761 8.27614 12.5 8 12.5C7.72386 12.5 7.5 12.2761 7.5 12M8.5 12C8.5 11.7239 8.27614 11.5 8 11.5C7.72386 11.5 7.5 11.7239 7.5 12M8.5 12H7.5M13 12C13 12.2761 12.7761 12.5 12.5 12.5C12.2239 12.5 12 12.2761 12 12M13 12C13 11.7239 12.7761 11.5 12.5 11.5C12.2239 11.5 12 11.7239 12 12M13 12H12M17.5 12C17.5 12.2761 17.2761 12.5 17 12.5C16.7239 12.5 16.5 12.2761 16.5 12M17.5 12C17.5 11.7239 17.2761 11.5 17 11.5C16.7239 11.5 16.5 11.7239 16.5 12M17.5 12H16.5M22.5 12C22.5 17.5228 18.0228 22 12.5 22C11.3606 22 10.3835 21.8377 9.47627 21.5132C8.61879 21.2065 8.19003 21.0531 8.02552 21.0144C6.5076 20.6574 5.8779 21.6977 4.56965 21.9157C3.92708 22.0228 3.35534 21.4967 3.40866 20.8475C3.45529 20.2798 3.84789 19.7429 4.00454 19.1977C4.33022 18.0644 3.88829 17.2052 3.4214 16.1973C2.83015 14.921 2.5 13.499 2.5 12C2.5 6.47715 6.97715 2 12.5 2C18.0228 2 22.5 6.47715 22.5 12Z" stroke="white" stroke-width="1.5" stroke-linecap="round" stroke-linejoin="round"/>
</svg>
