<?xml version="1.0" standalone="no"?>
<!DOCTYPE svg PUBLIC "-//W3C//DTD SVG 20010904//EN"
 "http://www.w3.org/TR/2001/REC-SVG-20010904/DTD/svg10.dtd">
<svg version="1.0" xmlns="http://www.w3.org/2000/svg" preserveAspectRatio="xMidYMid meet" viewBox="18.99 16.77 142.01 39.23">  <g transform="translate(0.000000,66.000000) scale(0.100000,-0.100000)" fill="#000000" stroke="none"> <path d="M770 483 c1 -5 7 -19 15 -33 48 -83 -27 -303 -110 -324 -63 -16 -91 48 -81 179 3 44 9 91 13 104 15 58 -25 7 -92 -117 l-72 -132 -7 81 c-8 95 -23 138 -61 167 -49 39 -131 25 -172 -28 -21 -26 -16 -96 10 -126 29 -34 97 -39 124 -10 17 18 17 18 -7 12 -58 -17 -66 -17 -93 4 -21 17 -27 30 -27 59 0 54 38 91 95 91 76 0 104 -52 112 -207 3 -57 9 -103 12 -103 3 0 33 50 65 111 84 155 81 154 82 52 0 -104 18 -148 62 -158 40 -8 75 8 108 49 62 77 92 225 61 299 -14 32 -38 52 -37 30z"></path> <path d="M1130 313 c0 -119 -2 -130 -23 -157 -33 -41 -57 -30 -57 24 0 30 -5 42 -17 47 -10 4 -23 13 -29 21 -6 8 -16 12 -22 8 -15 -9 -16 -43 -2 -51 14 -9 -7 -45 -25 -45 -8 0 -15 9 -15 19 0 28 -29 54 -44 41 -7 -5 -16 -7 -19 -3 -4 3 -16 -2 -27 -12 -22 -20 -27 -64 -8 -83 16 -16 63 -15 77 2 6 7 25 16 42 20 22 4 34 14 42 36 16 41 27 38 27 -8 0 -59 41 -82 82 -45 17 15 18 15 18 -5 0 -36 13 -25 40 30 25 51 50 74 50 45 0 -9 -12 -24 -27 -36 -26 -18 -27 -21 -11 -37 21 -21 63 -21 88 1 17 16 19 16 39 -4 26 -26 32 -26 65 0 14 11 26 16 26 10 0 -6 10 -15 21 -22 17 -9 26 -7 48 8 25 18 27 18 44 1 9 -10 22 -18 28 -18 16 0 69 56 69 74 0 25 -13 18 -35 -17 -31 -49 -49 -42 -53 21 -3 57 -16 69 -25 23 -8 -37 -50 -87 -65 -77 -7 4 -12 29 -12 57 0 54 -14 66 -23 20 -8 -37 -50 -87 -65 -77 -7 4 -12 29 -12 57 0 27 -4 49 -10 49 -5 0 -10 -7 -10 -16 0 -46 -70 -108 -94 -84 -7 7 -3 15 12 26 16 11 22 24 20 42 -4 36 -32 39 -63 8 l-25 -25 0 129 c0 80 -4 130 -10 130 -6 0 -10 -49 -10 -127z m-230 -176 c-13 -14 -44 -3 -48 16 -2 10 2 25 9 33 10 12 14 11 29 -13 10 -15 14 -32 10 -36z m20 48 c0 -8 -2 -15 -4 -15 -2 0 -6 7 -10 15 -3 8 -1 15 4 15 6 0 10 -7 10 -15z"></path> <path d="M1293 304 c-7 -18 17 -38 31 -24 11 11 1 40 -14 40 -6 0 -13 -7 -17 -16z"></path> <path d="M1393 304 c-7 -18 17 -38 31 -24 11 11 1 40 -14 40 -6 0 -13 -7 -17 -16z"></path> <path d="M1493 304 c-7 -18 17 -38 31 -24 11 11 1 40 -14 40 -6 0 -13 -7 -17 -16z"></path> </g> </svg>