<svg width="24" height="25" viewBox="0 0 24 25" fill="none" xmlns="http://www.w3.org/2000/svg">
<rect opacity="0.12" x="2" y="2.78711" width="20" height="20" rx="6" fill="white"/>
<path d="M8 1.78711V4.78711M16 1.78711V4.78711M17.5 8.78711H6.5M8 13.2871C8 13.5633 7.77614 13.7871 7.5 13.7871C7.22386 13.7871 7 13.5633 7 13.2871M8 13.2871C8 13.011 7.77614 12.7871 7.5 12.7871C7.22386 12.7871 7 13.011 7 13.2871M8 13.2871H7M8 17.2871C8 17.5633 7.77614 17.7871 7.5 17.7871C7.22386 17.7871 7 17.5633 7 17.2871M8 17.2871C8 17.011 7.77614 16.7871 7.5 16.7871C7.22386 16.7871 7 17.011 7 17.2871M8 17.2871H7M12.5 13.2871C12.5 13.5633 12.2761 13.7871 12 13.7871C11.7239 13.7871 11.5 13.5633 11.5 13.2871M12.5 13.2871C12.5 13.011 12.2761 12.7871 12 12.7871C11.7239 12.7871 11.5 13.011 11.5 13.2871M12.5 13.2871H11.5M12.5 17.2871C12.5 17.5633 12.2761 17.7871 12 17.7871C11.7239 17.7871 11.5 17.5633 11.5 17.2871M12.5 17.2871C12.5 17.011 12.2761 16.7871 12 16.7871C11.7239 16.7871 11.5 17.011 11.5 17.2871M12.5 17.2871H11.5M17 13.2871C17 13.5633 16.7761 13.7871 16.5 13.7871C16.2239 13.7871 16 13.5633 16 13.2871M17 13.2871C17 13.011 16.7761 12.7871 16.5 12.7871C16.2239 12.7871 16 13.011 16 13.2871M17 13.2871H16M17 17.2871C17 17.5633 16.7761 17.7871 16.5 17.7871C16.2239 17.7871 16 17.5633 16 17.2871M17 17.2871C17 17.011 16.7761 16.7871 16.5 16.7871C16.2239 16.7871 16 17.011 16 17.2871M17 17.2871H16M11.6 22.7871H12.4C15.7603 22.7871 17.4405 22.7871 18.7239 22.1331C19.8529 21.5579 20.7708 20.64 21.346 19.5111C22 18.2276 22 16.5474 22 13.1871V12.3871C22 9.02679 22 7.34664 21.346 6.06317C20.7708 4.93419 19.8529 4.01631 18.7239 3.44107C17.4405 2.78711 15.7603 2.78711 12.4 2.78711H11.6C8.23969 2.78711 6.55953 2.78711 5.27606 3.44107C4.14708 4.01631 3.2292 4.93419 2.65396 6.06317C2 7.34664 2 9.02679 2 12.3871V13.1871C2 16.5474 2 18.2276 2.65396 19.5111C3.2292 20.64 4.14708 21.5579 5.27606 22.1331C6.55953 22.7871 8.23969 22.7871 11.6 22.7871Z" stroke="white" stroke-width="1.5" stroke-linecap="round" stroke-linejoin="round"/>
</svg>
