<svg width="22" height="23" viewBox="0 0 22 23" fill="none" xmlns="http://www.w3.org/2000/svg">
<path d="M7 1V4M15 1V4M16.5 8H5.5M7 12.5C7 12.7761 6.77614 13 6.5 13C6.22386 13 6 12.7761 6 12.5M7 12.5C7 12.2239 6.77614 12 6.5 12C6.22386 12 6 12.2239 6 12.5M7 12.5H6M7 16.5C7 16.7761 6.77614 17 6.5 17C6.22386 17 6 16.7761 6 16.5M7 16.5C7 16.2239 6.77614 16 6.5 16C6.22386 16 6 16.2239 6 16.5M7 16.5H6M11.5 12.5C11.5 12.7761 11.2761 13 11 13C10.7239 13 10.5 12.7761 10.5 12.5M11.5 12.5C11.5 12.2239 11.2761 12 11 12C10.7239 12 10.5 12.2239 10.5 12.5M11.5 12.5H10.5M11.5 16.5C11.5 16.7761 11.2761 17 11 17C10.7239 17 10.5 16.7761 10.5 16.5M11.5 16.5C11.5 16.2239 11.2761 16 11 16C10.7239 16 10.5 16.2239 10.5 16.5M11.5 16.5H10.5M16 12.5C16 12.7761 15.7761 13 15.5 13C15.2239 13 15 12.7761 15 12.5M16 12.5C16 12.2239 15.7761 12 15.5 12C15.2239 12 15 12.2239 15 12.5M16 12.5H15M16 16.5C16 16.7761 15.7761 17 15.5 17C15.2239 17 15 16.7761 15 16.5M16 16.5C16 16.2239 15.7761 16 15.5 16C15.2239 16 15 16.2239 15 16.5M16 16.5H15M10.6 22H11.4C14.7603 22 16.4405 22 17.7239 21.346C18.8529 20.7708 19.7708 19.8529 20.346 18.7239C21 17.4405 21 15.7603 21 12.4V11.6C21 8.23969 21 6.55953 20.346 5.27606C19.7708 4.14708 18.8529 3.2292 17.7239 2.65396C16.4405 2 14.7603 2 11.4 2H10.6C7.23969 2 5.55953 2 4.27606 2.65396C3.14708 3.2292 2.2292 4.14708 1.65396 5.27606C1 6.55953 1 8.23969 1 11.6V12.4C1 15.7603 1 17.4405 1.65396 18.7239C2.2292 19.8529 3.14708 20.7708 4.27606 21.346C5.55953 22 7.23969 22 10.6 22Z" stroke="#0F1F48" stroke-width="1.5" stroke-linecap="round" stroke-linejoin="round"/>
</svg>
