<svg width="24" height="25" viewBox="0 0 24 25" fill="none" xmlns="http://www.w3.org/2000/svg">
<path d="M2 5.98711C2 4.867 2 4.30695 2.21799 3.87913C2.40973 3.5028 2.71569 3.19684 3.09202 3.0051C3.51984 2.78711 4.07989 2.78711 5.2 2.78711H6.8C7.92011 2.78711 8.48016 2.78711 8.90798 3.0051C9.28431 3.19684 9.59027 3.5028 9.78201 3.87913C10 4.30695 10 4.867 10 5.98711V7.58711C10 8.70721 10 9.26727 9.78201 9.69509C9.59027 10.0714 9.28431 10.3774 8.90798 10.5691C8.48016 10.7871 7.92011 10.7871 6.8 10.7871H5.2C4.07989 10.7871 3.51984 10.7871 3.09202 10.5691C2.71569 10.3774 2.40973 10.0714 2.21799 9.69509C2 9.26727 2 8.70721 2 7.58711V5.98711Z" stroke="white" stroke-width="1.5" stroke-linecap="round" stroke-linejoin="round"/>
<path d="M14 5.98711C14 4.867 14 4.30695 14.218 3.87913C14.4097 3.5028 14.7157 3.19684 15.092 3.0051C15.5198 2.78711 16.0799 2.78711 17.2 2.78711H18.8C19.9201 2.78711 20.4802 2.78711 20.908 3.0051C21.2843 3.19684 21.5903 3.5028 21.782 3.87913C22 4.30695 22 4.867 22 5.98711V7.58711C22 8.70721 22 9.26727 21.782 9.69509C21.5903 10.0714 21.2843 10.3774 20.908 10.5691C20.4802 10.7871 19.9201 10.7871 18.8 10.7871H17.2C16.0799 10.7871 15.5198 10.7871 15.092 10.5691C14.7157 10.3774 14.4097 10.0714 14.218 9.69509C14 9.26727 14 8.70721 14 7.58711V5.98711Z" stroke="white" stroke-width="1.5" stroke-linecap="round" stroke-linejoin="round"/>
<path d="M2 17.9871C2 16.867 2 16.307 2.21799 15.8791C2.40973 15.5028 2.71569 15.1968 3.09202 15.0051C3.51984 14.7871 4.07989 14.7871 5.2 14.7871H6.8C7.92011 14.7871 8.48016 14.7871 8.90798 15.0051C9.28431 15.1968 9.59027 15.5028 9.78201 15.8791C10 16.307 10 16.867 10 17.9871V19.5871C10 20.7072 10 21.2673 9.78201 21.6951C9.59027 22.0714 9.28431 22.3774 8.90798 22.5691C8.48016 22.7871 7.92011 22.7871 6.8 22.7871H5.2C4.07989 22.7871 3.51984 22.7871 3.09202 22.5691C2.71569 22.3774 2.40973 22.0714 2.21799 21.6951C2 21.2673 2 20.7072 2 19.5871V17.9871Z" stroke="white" stroke-width="1.5" stroke-linecap="round" stroke-linejoin="round"/>
<path d="M14 17.9871C14 16.867 14 16.307 14.218 15.8791C14.4097 15.5028 14.7157 15.1968 15.092 15.0051C15.5198 14.7871 16.0799 14.7871 17.2 14.7871H18.8C19.9201 14.7871 20.4802 14.7871 20.908 15.0051C21.2843 15.1968 21.5903 15.5028 21.782 15.8791C22 16.307 22 16.867 22 17.9871V19.5871C22 20.7072 22 21.2673 21.782 21.6951C21.5903 22.0714 21.2843 22.3774 20.908 22.5691C20.4802 22.7871 19.9201 22.7871 18.8 22.7871H17.2C16.0799 22.7871 15.5198 22.7871 15.092 22.5691C14.7157 22.3774 14.4097 22.0714 14.218 21.6951C14 21.2673 14 20.7072 14 19.5871V17.9871Z" stroke="white" stroke-width="1.5" stroke-linecap="round" stroke-linejoin="round"/>
</svg>
