<svg width="23" height="22" viewBox="0 0 23 22" fill="none" xmlns="http://www.w3.org/2000/svg">
<path d="M7.33337 11C7.33337 11.2761 7.10952 11.5 6.83337 11.5C6.55723 11.5 6.33337 11.2761 6.33337 11M7.33337 11C7.33337 10.7239 7.10952 10.5 6.83337 10.5C6.55723 10.5 6.33337 10.7239 6.33337 11M7.33337 11H6.33337M11.8334 11C11.8334 11.2761 11.6095 11.5 11.3334 11.5C11.0572 11.5 10.8334 11.2761 10.8334 11M11.8334 11C11.8334 10.7239 11.6095 10.5 11.3334 10.5C11.0572 10.5 10.8334 10.7239 10.8334 11M11.8334 11H10.8334M16.3334 11C16.3334 11.2761 16.1095 11.5 15.8334 11.5C15.5572 11.5 15.3334 11.2761 15.3334 11M16.3334 11C16.3334 10.7239 16.1095 10.5 15.8334 10.5C15.5572 10.5 15.3334 10.7239 15.3334 11M16.3334 11H15.3334M21.3334 11C21.3334 16.5228 16.8562 21 11.3334 21C10.194 21 9.21691 20.8377 8.30965 20.5132C7.45217 20.2065 7.02341 20.0531 6.85889 20.0144C5.34098 19.6574 4.71128 20.6977 3.40302 20.9157C2.76046 21.0228 2.18871 20.4967 2.24204 19.8475C2.28866 19.2798 2.68126 18.7429 2.83792 18.1977C3.1636 17.0644 2.72167 16.2052 2.25477 15.1973C1.66352 13.921 1.33337 12.499 1.33337 11C1.33337 5.47715 5.81053 1 11.3334 1C16.8562 1 21.3334 5.47715 21.3334 11Z" stroke="#39374D" stroke-width="1.5" stroke-linecap="round" stroke-linejoin="round"/>
</svg>
