<svg width="25" height="24" viewBox="0 0 25 24" fill="none" xmlns="http://www.w3.org/2000/svg">
<rect opacity="0.12" x="2.33337" y="2" width="20" height="20" rx="5" fill="#39374D"/>
<path d="M16.3334 16L8.33337 8M8.33337 8V14M8.33337 8H14.3334M10.3334 22H14.3334C17.1336 22 18.5338 22 19.6033 21.455C20.5441 20.9757 21.309 20.2108 21.7884 19.27C22.3334 18.2004 22.3334 16.8003 22.3334 14V10C22.3334 7.19974 22.3334 5.79961 21.7884 4.73005C21.309 3.78924 20.5441 3.02433 19.6033 2.54497C18.5338 2 17.1336 2 14.3334 2H10.3334C7.53311 2 6.13298 2 5.06342 2.54497C4.12261 3.02433 3.35771 3.78924 2.87834 4.73005C2.33337 5.79961 2.33337 7.19974 2.33337 10V14C2.33337 16.8003 2.33337 18.2004 2.87834 19.27C3.35771 20.2108 4.12261 20.9757 5.06342 21.455C6.13298 22 7.53311 22 10.3334 22Z" stroke="#39374D" stroke-width="1.5" stroke-linecap="round" stroke-linejoin="round"/>
</svg>
