<svg width="25" height="24" viewBox="0 0 25 24" fill="none" xmlns="http://www.w3.org/2000/svg">
<path opacity="0.12" d="M17.1667 4.5L13.9202 7.74651L13.9202 7.74652C13.4537 8.21308 13.2204 8.44636 13.0307 8.71022C12.8623 8.94448 12.7198 9.19626 12.6055 9.46119C12.4768 9.7596 12.3968 10.0797 12.2368 10.7198L11.6667 13L13.947 12.4299C14.5871 12.2699 14.9072 12.1899 15.2056 12.0612C15.4705 11.947 15.7223 11.8044 15.9565 11.636C16.2204 11.4464 16.4537 11.2131 16.9202 10.7465L20.1667 7.5C20.1667 7.5 18.6667 7 18.1667 6.5C17.6667 6 17.1667 4.5 17.1667 4.5Z" fill="#5BAE60"/>
<path d="M17.6667 4C17.4167 5.75 18.9167 7.25 20.6667 7M12.6667 2H12.1667H10.6667C7.86649 2 6.46635 2 5.3968 2.54497C4.45599 3.02433 3.69108 3.78924 3.21172 4.73005C2.66675 5.79961 2.66675 7.19974 2.66675 10V14C2.66675 16.8003 2.66675 18.2004 3.21172 19.27C3.69108 20.2108 4.45599 20.9757 5.3968 21.455C6.46635 22 7.86649 22 10.6667 22H14.6667C17.467 22 18.8671 22 19.9367 21.455C20.8775 20.9757 21.6424 20.2108 22.1218 19.27C22.6667 18.2004 22.6667 16.8003 22.6667 14V12.5V12M11.6667 13L12.2368 10.7198C12.3968 10.0797 12.4768 9.7596 12.6055 9.46119C12.7198 9.19626 12.8623 8.94448 13.0307 8.71022C13.2204 8.44636 13.4537 8.21308 13.9202 7.74651L18.1668 3.5C18.2464 3.42035 18.2862 3.38052 18.3215 3.34847C19.0843 2.65508 20.2492 2.65508 21.012 3.34847C21.0473 3.38052 21.0871 3.42035 21.1667 3.5V3.5C21.2464 3.57965 21.2862 3.61948 21.3183 3.65474C22.0117 4.41756 22.0117 5.58244 21.3183 6.34526C21.2862 6.38052 21.2464 6.42035 21.1668 6.5L16.9202 10.7465C16.4537 11.2131 16.2204 11.4464 15.9565 11.636C15.7223 11.8044 15.4705 11.947 15.2056 12.0612C14.9072 12.1899 14.5871 12.2699 13.947 12.4299L11.6667 13Z" stroke="#5BAE60" stroke-width="1.5" stroke-linecap="round" stroke-linejoin="round"/>
</svg>
