<svg width="20" height="20" viewBox="0 0 20 20" fill="none" xmlns="http://www.w3.org/2000/svg">
<g clip-path="url(#clip0_1299_15079)">
<path opacity="0.4" d="M7.5 13.3333H12.5" stroke="#A0A3BD" stroke-width="1.5" stroke-linecap="round" stroke-linejoin="round"/>
<path d="M9.54624 18.3333H10.4538C13.1405 18.3333 14.4838 18.3333 15.5186 17.8305C16.5266 17.3407 17.3408 16.5265 17.8305 15.5186C18.3334 14.4838 18.3334 13.1405 18.3334 10.4538C18.3334 9.09868 18.3334 8.42113 18.1678 7.79394C18.0057 7.17971 17.7281 6.602 17.3497 6.09172C16.9634 5.57066 16.4343 5.1474 15.3761 4.30088L14.9976 3.99805L14.9976 3.99804C13.214 2.57117 12.3222 1.85774 11.3332 1.58413C10.4608 1.34279 9.53925 1.34279 8.66686 1.58413C7.67785 1.85774 6.78605 2.57118 5.00246 3.99805L5.00246 3.99805L4.62392 4.30088C3.56577 5.1474 3.03669 5.57066 2.65034 6.09172C2.27197 6.602 1.99431 7.17971 1.83221 7.79394C1.66669 8.42113 1.66669 9.09868 1.66669 10.4538C1.66669 13.1405 1.66669 14.4838 2.16951 15.5186C2.65929 16.5265 3.47348 17.3407 4.48142 17.8305C5.51621 18.3333 6.85955 18.3333 9.54624 18.3333Z" stroke="#A0A3BD" stroke-width="1.5" stroke-linecap="round" stroke-linejoin="round"/>
</g>
<defs>
<clipPath id="clip0_1299_15079">
<rect width="20" height="20" fill="white"/>
</clipPath>
</defs>
</svg>
