<svg width="22" height="23" viewBox="0 0 22 23" fill="none" xmlns="http://www.w3.org/2000/svg">
<path d="M8 16H14M6.00244 3.99805L4.00244 5.59805C2.89986 6.48011 2.34857 6.92115 1.95174 7.46857C1.6002 7.95353 1.33865 8.49771 1.17957 9.07517C1 9.72701 1 10.433 1 11.845V14C1 16.8003 1 18.2004 1.54497 19.27C2.02433 20.2108 2.78924 20.9757 3.73005 21.455C4.79961 22 6.19974 22 9 22H13C15.8003 22 17.2004 22 18.27 21.455C19.2108 20.9757 19.9757 20.2108 20.455 19.27C21 18.2004 21 16.8003 21 14V11.845C21 10.433 21 9.72701 20.8204 9.07517C20.6613 8.49771 20.3998 7.95353 20.0483 7.46857C19.6514 6.92115 19.1001 6.48011 17.9976 5.59805L15.9976 3.99805C14.214 2.57118 13.3222 1.85774 12.3332 1.58413C11.4608 1.34279 10.5392 1.34279 9.66684 1.58413C8.67783 1.85774 7.78603 2.57118 6.00244 3.99805Z" stroke="#0F1F48" stroke-width="1.5" stroke-linecap="round" stroke-linejoin="round"/>
</svg>
