<svg width="24" height="25" viewBox="0 0 24 25" fill="none" xmlns="http://www.w3.org/2000/svg">
<path opacity="0.12" fill-rule="evenodd" clip-rule="evenodd" d="M2.99575 18.1637C3.40727 18.6317 3.9738 18.9716 5.10686 19.6515L8.70686 21.8115C9.90406 22.5298 10.5027 22.889 11.1417 23.0293C11.7069 23.1534 12.2924 23.1534 12.8576 23.0293C13.4966 22.889 14.0952 22.5298 15.2924 21.8115L18.8924 19.6515C20.0255 18.9716 20.592 18.6317 21.0035 18.1637C21.3677 17.7496 21.6423 17.2646 21.81 16.7392C21.9996 16.1456 21.9996 15.4849 21.9996 14.1635V11.4108C21.9996 10.0894 21.9996 9.42871 21.81 8.83505C21.6423 8.3097 21.3677 7.82472 21.0035 7.41057C20.592 6.94256 20.0255 6.60264 18.8924 5.9228L15.2924 3.76281C14.0952 3.04449 13.4966 2.68533 12.8576 2.545C12.2924 2.42087 11.7069 2.42087 11.1417 2.545C10.5027 2.68533 9.90406 3.04449 8.70686 3.76281L5.10686 5.92281C3.9738 6.60264 3.40726 6.94256 2.99575 7.41057C2.63158 7.82472 2.35699 8.3097 2.18922 8.83505C1.99963 9.42871 1.99963 10.0894 1.99963 11.4108V14.1635C1.99963 15.4849 1.99963 16.1456 2.18922 16.7392C2.35699 17.2646 2.63158 17.7496 2.99575 18.1637ZM12 9.78714C10.3431 9.78714 9 11.1303 9 12.7871C9 14.444 10.3431 15.7871 12 15.7871C13.6569 15.7871 15 14.444 15 12.7871C15 11.1303 13.6569 9.78714 12 9.78714Z" fill="white"/>
<path d="M5.10686 19.6514C3.9738 18.9716 3.40727 18.6317 2.99575 18.1637C2.63158 17.7495 2.35699 17.2646 2.18922 16.7392C1.99963 16.1455 1.99963 15.4849 1.99963 14.1635L1.99963 11.4107C1.99963 10.0894 1.99963 9.42867 2.18922 8.83502C2.35699 8.30967 2.63158 7.82468 2.99575 7.41053C3.40726 6.94253 3.9738 6.60261 5.10686 5.92277L8.70686 3.76277C9.90406 3.04445 10.5027 2.68529 11.1417 2.54496C11.7069 2.42084 12.2924 2.42084 12.8576 2.54496C13.4966 2.68529 14.0952 3.04445 15.2924 3.76277L18.8924 5.92277C20.0255 6.60261 20.592 6.94253 21.0035 7.41053C21.3677 7.82468 21.6423 8.30967 21.81 8.83502C21.9996 9.42867 21.9996 10.0894 21.9996 11.4107V14.1635C21.9996 15.4849 21.9996 16.1455 21.81 16.7392C21.6423 17.2646 21.3677 17.7495 21.0035 18.1637C20.592 18.6317 20.0255 18.9716 18.8924 19.6514L15.2924 21.8114C14.0952 22.5298 13.4966 22.8889 12.8576 23.0293C12.2924 23.1534 11.7069 23.1534 11.1417 23.0293C10.5027 22.8889 9.90406 22.5298 8.70686 21.8114L5.10686 19.6514Z" stroke="white" stroke-width="1.5" stroke-linecap="round" stroke-linejoin="round"/>
<path d="M9 12.7871C9 11.1303 10.3431 9.78711 12 9.78711C13.6569 9.78711 15 11.1303 15 12.7871C15 14.444 13.6569 15.7871 12 15.7871C10.3431 15.7871 9 14.444 9 12.7871Z" stroke="white" stroke-width="1.5" stroke-linecap="round" stroke-linejoin="round"/>
</svg>
