<svg width="24" height="25" viewBox="0 0 24 25" fill="none" xmlns="http://www.w3.org/2000/svg">
<path d="M15 10.7871C17.2091 10.7871 19 8.99625 19 6.78711C19 4.57797 17.2091 2.78711 15 2.78711M17 22.7871H19.8C21.5673 22.7871 23 21.3544 23 19.5871V19.5871C23 16.9361 20.851 14.7871 18.2 14.7871H17M12 6.78711C12 8.99625 10.2091 10.7871 8 10.7871C5.79086 10.7871 4 8.99625 4 6.78711C4 4.57797 5.79086 2.78711 8 2.78711C10.2091 2.78711 12 4.57797 12 6.78711ZM4.2 22.7871H11.8C13.5673 22.7871 15 21.3544 15 19.5871V19.5871C15 16.9361 12.851 14.7871 10.2 14.7871H5.8C3.14903 14.7871 1 16.9361 1 19.5871V19.5871C1 21.3544 2.43269 22.7871 4.2 22.7871Z" stroke="white" stroke-width="1.5" stroke-linecap="round" stroke-linejoin="round"/>
</svg>
