<svg width="32" height="32" viewBox="0 0 32 32" fill="none" xmlns="http://www.w3.org/2000/svg">
<path d="M10.668 1.33398V5.33398M21.3346 1.33398V5.33398M23.3346 10.6673H8.66797M10.668 16.6673C10.668 17.0355 10.3695 17.334 10.0013 17.334C9.63311 17.334 9.33464 17.0355 9.33464 16.6673M10.668 16.6673C10.668 16.2991 10.3695 16.0007 10.0013 16.0007C9.63311 16.0007 9.33464 16.2991 9.33464 16.6673M10.668 16.6673H9.33464M10.668 22.0007C10.668 22.3688 10.3695 22.6673 10.0013 22.6673C9.63311 22.6673 9.33464 22.3688 9.33464 22.0007M10.668 22.0007C10.668 21.6325 10.3695 21.334 10.0013 21.334C9.63311 21.334 9.33464 21.6325 9.33464 22.0007M10.668 22.0007H9.33464M16.668 16.6673C16.668 17.0355 16.3695 17.334 16.0013 17.334C15.6331 17.334 15.3346 17.0355 15.3346 16.6673M16.668 16.6673C16.668 16.2991 16.3695 16.0007 16.0013 16.0007C15.6331 16.0007 15.3346 16.2991 15.3346 16.6673M16.668 16.6673H15.3346M16.668 22.0007C16.668 22.3688 16.3695 22.6673 16.0013 22.6673C15.6331 22.6673 15.3346 22.3688 15.3346 22.0007M16.668 22.0007C16.668 21.6325 16.3695 21.334 16.0013 21.334C15.6331 21.334 15.3346 21.6325 15.3346 22.0007M16.668 22.0007H15.3346M22.668 16.6673C22.668 17.0355 22.3695 17.334 22.0013 17.334C21.6331 17.334 21.3346 17.0355 21.3346 16.6673M22.668 16.6673C22.668 16.2991 22.3695 16.0007 22.0013 16.0007C21.6331 16.0007 21.3346 16.2991 21.3346 16.6673M22.668 16.6673H21.3346M22.668 22.0007C22.668 22.3688 22.3695 22.6673 22.0013 22.6673C21.6331 22.6673 21.3346 22.3688 21.3346 22.0007M22.668 22.0007C22.668 21.6325 22.3695 21.334 22.0013 21.334C21.6331 21.334 21.3346 21.6325 21.3346 22.0007M22.668 22.0007H21.3346M12.268 29.334H19.7346C23.095 29.334 24.7751 29.334 26.0586 28.68C27.1876 28.1048 28.1054 27.1869 28.6807 26.0579C29.3346 24.7745 29.3346 23.0943 29.3346 19.734V12.2673C29.3346 8.907 29.3346 7.22685 28.6807 5.94337C28.1054 4.8144 27.1876 3.89652 26.0586 3.32128C24.7751 2.66732 23.095 2.66732 19.7346 2.66732H12.268C8.90765 2.66732 7.2275 2.66732 5.94403 3.32128C4.81505 3.89652 3.89717 4.8144 3.32193 5.94337C2.66797 7.22685 2.66797 8.907 2.66797 12.2673V19.734C2.66797 23.0943 2.66797 24.7745 3.32193 26.0579C3.89717 27.1869 4.81505 28.1048 5.94403 28.68C7.2275 29.334 8.90765 29.334 12.268 29.334Z" stroke="white" stroke-width="1.5" stroke-linecap="round" stroke-linejoin="round"/>
</svg>
