<svg width="33" height="32" viewBox="0 0 33 32" fill="none" xmlns="http://www.w3.org/2000/svg">
<path d="M19 22.666L15.2627 18.9288C14.4707 18.1367 14.0747 17.7407 13.618 17.5923C13.2163 17.4618 12.7837 17.4618 12.382 17.5923C11.9253 17.7407 11.5293 18.1367 10.7373 18.9288L7 22.666L6.33333 23.3327M19 22.666L20.7373 20.9288C21.5293 20.1367 21.9253 19.7407 22.382 19.5923C22.7837 19.4618 23.2163 19.4618 23.618 19.5923C24.0747 19.7407 24.4707 20.1367 25.2627 20.9288L27 22.666M19 22.666L23 26.666M21.6667 11.9993C21.6667 13.4721 20.4728 14.666 19 14.666C17.5272 14.666 16.3333 13.4721 16.3333 11.9993C16.3333 10.5266 17.5272 9.33268 19 9.33268C20.4728 9.33268 21.6667 10.5266 21.6667 11.9993ZM29.6667 15.9993C29.6667 23.3631 23.6971 29.3327 16.3333 29.3327C8.96954 29.3327 3 23.3631 3 15.9993C3 8.63555 8.96954 2.66602 16.3333 2.66602C23.6971 2.66602 29.6667 8.63555 29.6667 15.9993Z" stroke="white" stroke-width="1.5" stroke-linecap="round" stroke-linejoin="round"/>
</svg>
