<svg width="56" height="55" viewBox="0 0 56 55" fill="none" xmlns="http://www.w3.org/2000/svg">
<rect x="0.333496" width="55" height="55" rx="10" fill="#EDEFF1"/>
<path fill-rule="evenodd" clip-rule="evenodd" d="M43.2 20.0806C42.5614 19.5244 41.552 18.9888 40.0482 18.9888H34.1463C34.1463 18.9888 31.5507 18.8961 31.5507 15.8576V10.4809C31.5507 10.4809 31.1902 8.32821 30.4795 7.71021C30.3662 7.61751 30.3559 7.55571 30.4074 7.54541C30.3971 7.54541 30.3868 7.55571 30.3868 7.55571L43.2 19.9364V20.0806ZM30.634 7.55571C30.6649 7.56601 30.6855 7.56601 30.7164 7.57631C30.6855 7.56601 30.6546 7.56601 30.634 7.55571ZM31.252 7.76171C31.2932 7.78231 31.3447 7.80291 31.3962 7.82351C31.3447 7.80291 31.3035 7.78231 31.252 7.76171Z" fill="url(#paint0_linear_1477_17574)"/>
<path fill-rule="evenodd" clip-rule="evenodd" d="M26.8257 7H15.0115C13.5386 7 12.3335 8.20511 12.3335 9.67801V45.9548C12.3335 47.4174 13.5077 48.6019 14.96 48.6328H21.8095H18.5547H41.4311C42.904 48.6328 44.1092 47.4277 44.1092 45.9548V24.2114C44.1092 20.1841 40.6277 20.009 40.6277 20.009H34.0151C30.5337 20.009 30.6161 16.4348 30.6161 16.4348V10.9861C30.6161 6.8661 26.8566 7.0515 26.8566 7.0515L26.836 7.0309L26.8257 7ZM43.2234 20.0811C42.5847 19.5146 41.5753 18.9893 40.0715 18.9893H34.1696C34.1696 18.9893 31.574 18.8966 31.574 15.858V10.4814C31.574 10.4814 31.2135 8.32871 30.5028 7.7107C30.4204 7.6386 30.3895 7.5871 30.4101 7.5562L43.2131 19.9266V19.7927C39.8758 14.7456 37.0948 12.253 35.1378 10.296C34.2005 9.35871 33.0572 8.62741 32.1302 8.15361C33.0675 8.62741 34.2108 9.35871 35.1584 10.3063C37.1154 12.2633 39.8964 14.7559 43.2337 19.803V20.0811H43.2234Z" fill="#E31E24"/>
<path d="M18.2764 28.0426H21.9123C22.7054 28.0426 23.2925 28.228 23.6942 28.6091C24.0959 28.9902 24.2813 29.5155 24.2813 30.2159C24.2813 30.9266 24.0547 31.4828 23.6324 31.8845C23.1998 32.2862 22.5509 32.4922 21.6651 32.4922H20.4703V35.1084H18.2764V28.0529V28.0426ZM20.4703 31.0605H21.0059C21.4385 31.0605 21.7166 30.9781 21.8917 30.8339C22.0668 30.6897 22.1492 30.5043 22.1492 30.2777C22.1492 30.0511 22.0668 29.8657 21.9226 29.7112C21.7784 29.5567 21.49 29.4743 21.078 29.4743H20.46V31.0605H20.4703ZM25.4349 28.0426H28.6691C29.3077 28.0426 29.8227 28.125 30.2244 28.3001C30.6261 28.4752 30.9351 28.7327 31.2029 29.0417C31.4604 29.3713 31.6458 29.7421 31.7591 30.1644C31.8724 30.597 31.9342 31.0502 31.9342 31.524C31.9342 32.2862 31.8518 32.8527 31.6767 33.2853C31.5016 33.6973 31.2647 34.0475 30.966 34.3359C30.6673 34.6243 30.3274 34.8097 29.9772 34.8921C29.5034 35.0157 29.0708 35.0775 28.6794 35.0775H25.4452V28.022L25.4246 28.0426H25.4349ZM27.6082 29.6494V33.5016H28.1438C28.6073 33.5016 28.9163 33.4501 29.1326 33.3471C29.318 33.2544 29.4828 33.0587 29.5961 32.8218C29.7094 32.5643 29.7506 32.1523 29.7506 31.5961C29.7506 30.8545 29.627 30.3395 29.3901 30.0614C29.1532 29.7936 28.7412 29.6494 28.1644 29.6494H27.6082ZM33.0775 28.0426H38.4748V29.567H35.2715V30.803H38.0113V32.2347H35.2715V35.1084H33.0775V28.0529V28.0426Z" fill="white"/>
<defs>
<linearGradient id="paint0_linear_1477_17574" x1="41.3366" y1="7.30655" x2="32.2243" y2="20.3092" gradientUnits="userSpaceOnUse">
<stop stop-color="#A42421"/>
<stop offset="1" stop-color="#E31E24"/>
</linearGradient>
</defs>
</svg>
