<svg width="33" height="32" viewBox="0 0 33 32" fill="none" xmlns="http://www.w3.org/2000/svg">
<path d="M3.33594 5.33268V22.9327C3.33594 25.1729 3.33594 26.293 3.77191 27.1486C4.1554 27.9013 4.76733 28.5132 5.51998 28.8967C6.37562 29.3327 7.49573 29.3327 9.73593 29.3327H23.6026C25.8428 29.3327 26.9629 29.3327 27.8186 28.8967C28.5712 28.5132 29.1831 27.9013 29.5666 27.1486C30.0026 26.293 30.0026 25.1729 30.0026 22.9327V14.3994C30.0026 12.1591 30.0026 11.039 29.5666 10.1834C29.1831 9.43074 28.5712 8.81882 27.8186 8.43532C26.9629 7.99935 25.8428 7.99935 23.6026 7.99935H16.6693M30.0026 14.666H29.3359C28.406 14.666 27.941 14.666 27.5595 14.7682C26.5242 15.0456 25.7156 15.8543 25.4382 16.8896C25.3359 17.2711 25.3359 17.736 25.3359 18.666V18.666C25.3359 19.596 25.3359 20.061 25.4382 20.4425C25.7156 21.4777 26.5242 22.2864 27.5595 22.5638C27.941 22.666 28.406 22.666 29.3359 22.666H30.0026M10.6693 18.666H14.0026H17.3359M23.3359 7.99935L21.2559 5.22602C20.5519 4.28735 20.1999 3.81802 19.7538 3.47952C19.3587 3.17971 18.9113 2.956 18.4344 2.8198C17.8959 2.66602 17.3093 2.66602 16.1359 2.66602H6.0026C4.52984 2.66602 3.33594 3.85992 3.33594 5.33268V5.33268C3.33594 6.80544 4.52985 7.99935 6.0026 7.99935H23.3359Z" stroke="white" stroke-width="1.5" stroke-linecap="round" stroke-linejoin="round"/>
</svg>
