<svg width="11" height="17" viewBox="0 0 11 17" fill="none" xmlns="http://www.w3.org/2000/svg">
<path d="M5.2167 16.6364V0.272726H6.26499V16.6364H5.2167ZM8.49582 5.34801C8.42763 4.7429 8.14638 4.27415 7.65207 3.94176C7.15775 3.60511 6.53559 3.43679 5.78559 3.43679C5.24866 3.43679 4.78417 3.52202 4.39212 3.69247C4.00008 3.85866 3.69539 4.08878 3.47806 4.38281C3.26499 4.67258 3.15846 5.00284 3.15846 5.37358C3.15846 5.68466 3.2309 5.95312 3.37579 6.17898C3.52493 6.40483 3.71883 6.59446 3.95746 6.74787C4.20036 6.89702 4.4603 7.02273 4.73729 7.125C5.01428 7.22301 5.28062 7.30398 5.5363 7.3679L6.81471 7.70028C7.23232 7.80256 7.66059 7.94105 8.09951 8.11577C8.53843 8.29048 8.94539 8.5206 9.32039 8.80611C9.69539 9.09162 9.99795 9.44531 10.2281 9.86719C10.4624 10.2891 10.5796 10.794 10.5796 11.3821C10.5796 12.1236 10.3879 12.782 10.0043 13.3572C9.62508 13.9325 9.07323 14.3864 8.3488 14.7188C7.62863 15.0511 6.75718 15.2173 5.73445 15.2173C4.75434 15.2173 3.90633 15.0618 3.19042 14.7507C2.47451 14.4396 1.91414 13.9986 1.50931 13.4276C1.10448 12.8523 0.880758 12.1705 0.838145 11.3821H2.81968C2.85803 11.8551 3.01144 12.2493 3.27991 12.5646C3.55263 12.8757 3.89993 13.108 4.32181 13.2614C4.74795 13.4105 5.21457 13.4851 5.72167 13.4851C6.27991 13.4851 6.77636 13.3977 7.21101 13.223C7.64993 13.044 7.99511 12.7969 8.24653 12.4815C8.49795 12.1619 8.62366 11.7891 8.62366 11.3629C8.62366 10.9751 8.51286 10.6577 8.29127 10.4105C8.07394 10.1634 7.77778 9.95881 7.40278 9.79688C7.03204 9.63494 6.61229 9.49219 6.14354 9.36861L4.59667 8.94673C3.54837 8.66122 2.71741 8.24148 2.10377 7.6875C1.49439 7.13352 1.18971 6.40057 1.18971 5.48864C1.18971 4.73437 1.39425 4.07599 1.80334 3.51349C2.21243 2.95099 2.76641 2.5142 3.46528 2.20312C4.16414 1.88778 4.95249 1.73011 5.83033 1.73011C6.7167 1.73011 7.49866 1.88565 8.17621 2.19673C8.85803 2.50781 9.39496 2.93608 9.78701 3.48153C10.1791 4.02273 10.3836 4.64489 10.4006 5.34801H8.49582Z" fill="#FFB142"/>
</svg>
