<svg width="60" height="60" viewBox="0 0 60 60" fill="none" xmlns="http://www.w3.org/2000/svg">
<rect width="60" height="60" rx="30" fill="#39374D"/>
<path d="M30.0013 22.0003H30.0146M27.3346 39.3337H32.668M30.668 22.0003C30.668 22.3685 30.3695 22.667 30.0013 22.667C29.6331 22.667 29.3346 22.3685 29.3346 22.0003C29.3346 21.6321 29.6331 21.3337 30.0013 21.3337C30.3695 21.3337 30.668 21.6321 30.668 22.0003ZM27.068 43.3337H32.9346C35.1748 43.3337 36.295 43.3337 37.1506 42.8977C37.9032 42.5142 38.5152 41.9023 38.8987 41.1496C39.3346 40.294 39.3346 39.1739 39.3346 36.9337V23.067C39.3346 20.8268 39.3346 19.7067 38.8987 18.851C38.5152 18.0984 37.9032 17.4865 37.1506 17.103C36.295 16.667 35.1748 16.667 32.9346 16.667H27.068C24.8278 16.667 23.7077 16.667 22.852 17.103C22.0994 17.4865 21.4874 18.0984 21.1039 18.851C20.668 19.7067 20.668 20.8268 20.668 23.067V36.9337C20.668 39.1739 20.668 40.294 21.1039 41.1496C21.4874 41.9023 22.0994 42.5142 22.852 42.8977C23.7077 43.3337 24.8278 43.3337 27.068 43.3337Z" stroke="white" stroke-width="1.5" stroke-linecap="round" stroke-linejoin="round"/>
</svg>
