<svg width="61" height="60" viewBox="0 0 61 60" fill="none" xmlns="http://www.w3.org/2000/svg">
<path d="M6.75 46.25L20.7704 32.2296C21.552 31.448 21.9427 31.0573 22.3943 30.9083C22.7916 30.7773 23.2199 30.7741 23.6191 30.8993C24.0728 31.0415 24.4693 31.4265 25.2623 32.1964L36.7153 43.316M54.25 44.2187L47.294 37.2627C46.502 36.4707 46.106 36.0747 45.6493 35.9263C45.2476 35.7958 44.8149 35.7958 44.4132 35.9263C43.9566 36.0747 43.5608 36.4705 42.7691 37.2622C39.9938 40.0374 36.7153 43.316 36.7153 43.316M46.75 53.3507L36.7153 43.316M45.5 22.5V7.5M45.5 7.5L39.25 13.75M45.5 7.5L51.75 13.75M30.5 5H29.25H15.1C11.7397 5 10.0595 5 8.77606 5.65396C7.64708 6.2292 6.7292 7.14708 6.15396 8.27606C5.5 9.55953 5.5 11.2397 5.5 14.6V45.4C5.5 48.7603 5.5 50.4405 6.15396 51.7239C6.7292 52.8529 7.64708 53.7708 8.77606 54.346C10.0595 55 11.7397 55 15.1 55H45.9C49.2603 55 50.9405 55 52.2239 54.346C53.3529 53.7708 54.2708 52.8529 54.846 51.7239C55.5 50.4405 55.5 48.7603 55.5 45.4V31.25V30" stroke="#6F6C90" stroke-width="3" stroke-linecap="round" stroke-linejoin="round"/>
</svg>
