<svg width="60" height="60" viewBox="0 0 60 60" fill="none" xmlns="http://www.w3.org/2000/svg">
<rect width="60" height="60" rx="30" fill="#A0A3BD"/>
<path d="M32.668 36.667L28.9307 32.9297C28.1387 32.1377 27.7427 31.7417 27.286 31.5933C26.8843 31.4628 26.4516 31.4628 26.0499 31.5933C25.5933 31.7417 25.1973 32.1377 24.4052 32.9297L20.668 36.667L20.0013 37.3337M32.668 36.667L34.4052 34.9297C35.1973 34.1377 35.5933 33.7417 36.0499 33.5933C36.4516 33.4628 36.8843 33.4628 37.286 33.5933C37.7427 33.7417 38.1387 34.1377 38.9307 34.9297L40.668 36.667M32.668 36.667L36.668 40.667M35.3346 26.0003C35.3346 27.4731 34.1407 28.667 32.668 28.667C31.1952 28.667 30.0013 27.4731 30.0013 26.0003C30.0013 24.5276 31.1952 23.3337 32.668 23.3337C34.1407 23.3337 35.3346 24.5276 35.3346 26.0003ZM43.3346 30.0003C43.3346 37.3641 37.3651 43.3337 30.0013 43.3337C22.6375 43.3337 16.668 37.3641 16.668 30.0003C16.668 22.6365 22.6375 16.667 30.0013 16.667C37.3651 16.667 43.3346 22.6365 43.3346 30.0003Z" stroke="white" stroke-width="1.5" stroke-linecap="round" stroke-linejoin="round"/>
</svg>
