<svg width="60" height="60" viewBox="0 0 60 60" fill="none" xmlns="http://www.w3.org/2000/svg">
<rect width="60" height="60" rx="30" fill="#39374D"/>
<path d="M30.0013 35.3337V28.667M30.668 24.667C30.668 25.0352 30.3695 25.3337 30.0013 25.3337C29.6331 25.3337 29.3346 25.0352 29.3346 24.667M30.668 24.667C30.668 24.2988 30.3695 24.0003 30.0013 24.0003C29.6331 24.0003 29.3346 24.2988 29.3346 24.667M30.668 24.667H29.3346M43.3346 30.0003C43.3346 37.3641 37.3651 43.3337 30.0013 43.3337C22.6375 43.3337 16.668 37.3641 16.668 30.0003C16.668 22.6365 22.6375 16.667 30.0013 16.667C37.3651 16.667 43.3346 22.6365 43.3346 30.0003Z" stroke="white" stroke-width="1.5" stroke-linecap="round" stroke-linejoin="round"/>
</svg>
