<svg width="32" height="32" viewBox="0 0 32 32" fill="none" xmlns="http://www.w3.org/2000/svg">
<path d="M5.33464 6.66699L6.31361 23.3095C6.43833 25.4299 6.5007 26.4901 6.95324 27.2946C7.35163 28.0029 7.95628 28.573 8.68673 28.9291C9.51648 29.3337 10.5785 29.3337 12.7026 29.3337H19.3C21.4241 29.3337 22.4861 29.3337 23.3159 28.9291C24.0463 28.573 24.651 28.0029 25.0494 27.2946C25.5019 26.4901 25.5643 25.4299 25.689 23.3095L26.668 6.66699M5.33464 6.66699H2.66797M5.33464 6.66699H26.668M26.668 6.66699H29.3346M21.3346 6.66699L20.5483 4.30805C20.3516 3.71793 20.2533 3.42287 20.0708 3.20473C19.9097 3.01209 19.7029 2.86298 19.4692 2.77107C19.2045 2.66699 18.8935 2.66699 18.2715 2.66699H13.7311C13.1091 2.66699 12.7981 2.66699 12.5334 2.77107C12.2997 2.86298 12.0929 3.01209 11.9318 3.20473C11.7493 3.42287 11.651 3.71793 11.4543 4.30805L10.668 6.66699M13.3346 13.3337V22.667M18.668 13.3337V18.667" stroke="#D92C20" stroke-width="1.5" stroke-linecap="round" stroke-linejoin="round"/>
</svg>
